<?xml version="1.0" encoding="UTF-8"?>
<!DOCTYPE svg PUBLIC "-//W3C//DTD SVG 1.1//EN" "http://www.w3.org/Graphics/SVG/1.1/DTD/svg11.dtd">
<svg xmlns="http://www.w3.org/2000/svg" version="1.1" width="256px" height="256px" style="shape-rendering:geometricPrecision; text-rendering:geometricPrecision; image-rendering:optimizeQuality; fill-rule:evenodd; clip-rule:evenodd" xmlns:xlink="http://www.w3.org/1999/xlink">
<g><path style="opacity:0.967" fill="#fefffe" d="M -0.5,-0.5 C 31.1667,-0.5 62.8333,-0.5 94.5,-0.5C 94.5,23.5 94.5,47.5 94.5,71.5C 84.8104,71.1682 75.1437,71.5016 65.5,72.5C 62.8811,78.2401 59.8811,83.7401 56.5,89C 50.1667,89.6667 43.8333,89.6667 37.5,89C 34.1667,83.3333 30.8333,77.6667 27.5,72C 18.1726,71.5002 8.83928,71.3335 -0.5,71.5C -0.5,47.5 -0.5,23.5 -0.5,-0.5 Z M 14.5,14.5 C 35.8333,14.5 57.1667,14.5 78.5,14.5C 78.5,28.1667 78.5,41.8333 78.5,55.5C 71.1591,55.3337 63.8258,55.5003 56.5,56C 53.207,61.4184 50.0403,66.9184 47,72.5C 43.9597,66.9184 40.793,61.4184 37.5,56C 29.8406,55.5003 22.1739,55.3336 14.5,55.5C 14.5,41.8333 14.5,28.1667 14.5,14.5 Z"/></g>
<g><path style="opacity:0.967" fill="#fefffe" d="M 160.5,-0.5 C 192.167,-0.5 223.833,-0.5 255.5,-0.5C 255.5,23.5 255.5,47.5 255.5,71.5C 246.161,71.3335 236.827,71.5002 227.5,72C 224.167,77.6667 220.833,83.3333 217.5,89C 211.167,89.6667 204.833,89.6667 198.5,89C 195.119,83.7401 192.119,78.2401 189.5,72.5C 179.856,71.5016 170.19,71.1682 160.5,71.5C 160.5,47.5 160.5,23.5 160.5,-0.5 Z M 176.5,14.5 C 197.833,14.5 219.167,14.5 240.5,14.5C 240.5,28.1667 240.5,41.8333 240.5,55.5C 232.826,55.3336 225.159,55.5003 217.5,56C 214.207,61.4184 211.04,66.9184 208,72.5C 204.96,66.9184 201.793,61.4184 198.5,56C 191.174,55.5003 183.841,55.3337 176.5,55.5C 176.5,41.8333 176.5,28.1667 176.5,14.5 Z"/></g>
<g><path style="opacity:0.956" fill="#fefffe" d="M -0.5,103.5 C 84.8333,103.5 170.167,103.5 255.5,103.5C 255.5,119.5 255.5,135.5 255.5,151.5C 170.167,151.5 84.8333,151.5 -0.5,151.5C -0.5,135.5 -0.5,119.5 -0.5,103.5 Z M 14.5,119.5 C 36.1667,119.5 57.8333,119.5 79.5,119.5C 79.5,124.833 79.5,130.167 79.5,135.5C 57.8333,135.5 36.1667,135.5 14.5,135.5C 14.5,130.167 14.5,124.833 14.5,119.5 Z M 95.5,119.5 C 116.833,119.5 138.167,119.5 159.5,119.5C 159.5,124.833 159.5,130.167 159.5,135.5C 138.167,135.5 116.833,135.5 95.5,135.5C 95.5,130.167 95.5,124.833 95.5,119.5 Z M 175.5,119.5 C 197.167,119.5 218.833,119.5 240.5,119.5C 240.5,124.833 240.5,130.167 240.5,135.5C 218.833,135.5 197.167,135.5 175.5,135.5C 175.5,130.167 175.5,124.833 175.5,119.5 Z"/></g>
<g><path style="opacity:0.952" fill="#fefffe" d="M 175.5,255.5 C 143.5,255.5 111.5,255.5 79.5,255.5C 79.5,231.5 79.5,207.5 79.5,183.5C 89.1724,183.666 98.8391,183.5 108.5,183C 111.373,177.42 114.373,171.92 117.5,166.5C 124.167,165.167 130.833,165.167 137.5,166.5C 140.627,171.92 143.627,177.42 146.5,183C 156.161,183.5 165.828,183.666 175.5,183.5C 175.5,207.5 175.5,231.5 175.5,255.5 Z M 127.5,182.5 C 130.473,187.771 133.473,193.104 136.5,198.5C 144.138,199.497 151.804,199.831 159.5,199.5C 159.5,213.167 159.5,226.833 159.5,240.5C 138.167,240.5 116.833,240.5 95.5,240.5C 95.5,226.833 95.5,213.167 95.5,199.5C 103.196,199.831 110.862,199.497 118.5,198.5C 121.512,193.139 124.512,187.806 127.5,182.5 Z"/></g>
</svg>
