<svg xmlns="http://www.w3.org/2000/svg" version="1.1" width="256px" height="256px" style="shape-rendering:geometricPrecision; text-rendering:geometricPrecision; image-rendering:optimizeQuality; fill-rule:evenodd; clip-rule:evenodd" xmlns:xlink="http://www.w3.org/1999/xlink">
<g><path style="opacity:0.883" fill="#fefffe" d="M 200.5,-0.5 C 204.833,-0.5 209.167,-0.5 213.5,-0.5C 228.5,12.5 242.5,26.5 255.5,41.5C 255.5,45.8333 255.5,50.1667 255.5,54.5C 245.096,66.4076 234.096,77.9076 222.5,89C 224.296,92.7598 225.962,96.5931 227.5,100.5C 230.663,102.916 233.996,105.082 237.5,107C 239.378,108.543 240.878,110.376 242,112.5C 243.58,121.424 243.913,130.424 243,139.5C 242.529,141.246 241.862,142.913 241,144.5C 236.515,148.408 231.848,152.074 227,155.5C 223.336,163.661 220.169,171.995 217.5,180.5C 218.426,184.795 219.092,189.128 219.5,193.5C 219.522,195.965 219.022,198.298 218,200.5C 212.167,206.333 206.333,212.167 200.5,218C 198.298,219.022 195.965,219.522 193.5,219.5C 188.176,218.532 182.843,218.032 177.5,218C 170.167,221 162.833,224 155.5,227C 152.074,231.848 148.408,236.515 144.5,241C 142.913,241.862 141.246,242.529 139.5,243C 130.105,243.886 120.772,243.553 111.5,242C 107.12,237.289 103.12,232.289 99.5,227C 95.9009,225.691 92.4009,224.191 89,222.5C 82.1667,229.333 75.3333,236.167 68.5,243C 50.362,247.124 32.362,251.29 14.5,255.5C 11.1667,255.5 7.83333,255.5 4.5,255.5C 2.5,254.167 0.833333,252.5 -0.5,250.5C -0.5,247.167 -0.5,243.833 -0.5,240.5C 3.6342,222.621 7.80087,204.621 12,186.5C 18.8333,179.667 25.6667,172.833 32.5,166C 30.8094,162.599 29.3094,159.099 28,155.5C 22.7114,151.88 17.7114,147.88 13,143.5C 11.4133,133.908 11.0799,124.242 12,114.5C 13.0314,111.461 14.8647,108.961 17.5,107C 21.2784,104.888 24.7784,102.388 28,99.5C 31,92.1667 34,84.8333 37,77.5C 36.9206,72.3277 36.4206,67.161 35.5,62C 35.464,59.3701 35.964,56.8701 37,54.5C 42.8333,48.6667 48.6667,42.8333 54.5,37C 56.7017,35.9777 59.0351,35.4777 61.5,35.5C 65.8716,35.9076 70.2049,36.5742 74.5,37.5C 83.0054,34.8308 91.3388,31.6642 99.5,28C 102.926,23.1518 106.592,18.4851 110.5,14C 112.087,13.1376 113.754,12.4709 115.5,12C 124.576,11.0867 133.576,11.42 142.5,13C 144.624,14.1217 146.457,15.6217 148,17.5C 149.918,21.0039 152.084,24.3372 154.5,27.5C 158.407,29.0377 162.24,30.7044 166,32.5C 177.092,20.9039 188.592,9.9039 200.5,-0.5 Z M 204.5,8.5 C 206.989,8.29777 209.323,8.79777 211.5,10C 223.363,21.5291 234.863,33.3624 246,45.5C 246.706,47.9712 246.373,50.3046 245,52.5C 236.333,61.1667 227.667,69.8333 219,78.5C 217.977,77.3999 217.477,76.0666 217.5,74.5C 218.426,70.2049 219.092,65.8716 219.5,61.5C 219.522,59.0351 219.022,56.7017 218,54.5C 211.802,47.9679 205.302,41.8013 198.5,36C 192.42,35.3744 186.42,35.8744 180.5,37.5C 178.933,37.523 177.6,37.023 176.5,36C 185.728,26.6038 195.062,17.4371 204.5,8.5 Z M 116.5,21.5 C 123.841,21.3337 131.174,21.5003 138.5,22C 141.5,26.3333 144.5,30.6667 147.5,35C 156.833,39 166.167,43 175.5,47C 181.954,46.971 188.287,46.3043 194.5,45C 200.015,50.348 205.348,55.848 210.5,61.5C 208.371,67.3405 207.538,73.3405 208,79.5C 212,88.8333 216,98.1667 220,107.5C 224.333,110.5 228.667,113.5 233,116.5C 233.667,123.833 233.667,131.167 233,138.5C 228.667,141.5 224.333,144.5 220,147.5C 215.724,157.052 211.724,166.719 208,176.5C 208.037,182.621 208.704,188.621 210,194.5C 204.652,200.015 199.152,205.348 193.5,210.5C 187.949,208.688 182.282,207.855 176.5,208C 166.752,211.805 157.086,215.805 147.5,220C 144.5,224.333 141.5,228.667 138.5,233C 131.167,233.667 123.833,233.667 116.5,233C 113.5,228.667 110.5,224.333 107.5,220C 103.714,218.607 100.048,216.941 96.5,215C 100.682,210.651 105.015,206.485 109.5,202.5C 150.498,209.418 180.332,194.418 199,157.5C 211.174,122.362 203.674,92.195 176.5,67C 152.2,49.2728 125.866,45.6062 97.5,56C 71.4732,68.0324 55.9732,88.199 51,116.5C 50.249,126.622 50.5823,136.622 52,146.5C 48,150.5 44,154.5 40,158.5C 38.0593,154.952 36.3926,151.286 35,147.5C 30.6667,144.5 26.3333,141.5 22,138.5C 21.3333,131.167 21.3333,123.833 22,116.5C 26.3333,113.5 30.6667,110.5 35,107.5C 39.1953,97.9142 43.1953,88.2475 47,78.5C 46.8415,72.3954 46.1749,66.3954 45,60.5C 50.348,54.985 55.848,49.6517 61.5,44.5C 67.0513,46.3117 72.718,47.1451 78.5,47C 88.2475,43.1953 97.9142,39.1953 107.5,35C 110.634,30.5574 113.634,26.0574 116.5,21.5 Z M 122.5,59.5 C 127.566,59.3399 132.566,59.8399 137.5,61C 112,86.5 86.5,112 61,137.5C 57.7004,103.931 71.2004,79.7645 101.5,65C 108.452,62.451 115.452,60.6176 122.5,59.5 Z M 148.5,63.5 C 157.808,65.8714 165.308,70.5381 171,77.5C 128.333,120.167 85.6667,162.833 43,205.5C 41,200.167 39,194.833 37,189.5C 33.4279,188.456 29.9279,187.289 26.5,186C 67.3681,145.299 108.035,104.465 148.5,63.5 Z M 177.5,83.5 C 184.559,89.6109 189.059,97.2776 191,106.5C 150.333,147.167 109.667,187.833 69,228.5C 67.7107,225.072 66.544,221.572 65.5,218C 60.1667,216 54.8333,214 49.5,212C 92.3681,169.299 135.035,126.465 177.5,83.5 Z M 193.5,117.5 C 197.351,150.953 184.018,175.12 153.5,190C 141.854,194.903 129.854,196.236 117.5,194C 143.035,168.632 168.368,143.132 193.5,117.5 Z M 19.5,195.5 C 22.9097,195.782 26.243,196.449 29.5,197.5C 32.0706,204.38 34.7373,211.213 37.5,218C 44.215,220.405 50.8817,222.905 57.5,225.5C 58.9069,228.822 59.2402,232.155 58.5,235.5C 52.8197,237.002 47.153,238.169 41.5,239C 33,230.5 24.5,222 16,213.5C 16.9594,207.534 18.1261,201.534 19.5,195.5 Z M 12.5,225.5 C 18.7557,230.085 24.4224,235.419 29.5,241.5C 22.4973,243.903 15.4973,245.236 8.5,245.5C 10.4687,238.959 11.802,232.292 12.5,225.5 Z"/></g>
</svg>
