<?xml version="1.0" standalone="no"?>
<!DOCTYPE svg PUBLIC "-//W3C//DTD SVG 20010904//EN"
 "http://www.w3.org/TR/2001/REC-SVG-20010904/DTD/svg10.dtd">
<svg version="1.0" xmlns="http://www.w3.org/2000/svg"
 width="128.000000pt" height="128.000000pt" viewBox="0 0 128.000000 128.000000"
 preserveAspectRatio="xMidYMid meet">

<g transform="translate(0.000000,128.000000) scale(0.100000,-0.100000)"
fill="#000000" stroke="none">
<path d="M607 1262 c-15 -16 -17 -52 -17 -295 l0 -277 -278 0 c-258 0 -280 -1
-295 -18 -22 -24 -21 -45 1 -65 16 -15 52 -17 295 -17 l277 0 0 -278 c0 -258
1 -280 18 -295 24 -22 45 -21 65 1 15 16 17 52 17 295 l0 277 278 0 c258 0
280 1 295 18 22 24 21 45 -1 65 -16 15 -52 17 -295 17 l-277 0 0 278 c0 258
-1 280 -18 295 -24 22 -45 21 -65 -1z"/>
</g>
</svg>
