<svg xmlns="http://www.w3.org/2000/svg" version="1.1" width="256px" height="256px" style="shape-rendering:geometricPrecision; text-rendering:geometricPrecision; image-rendering:optimizeQuality; fill-rule:evenodd; clip-rule:evenodd" xmlns:xlink="http://www.w3.org/1999/xlink">
<g><path style="opacity:0.947" fill="#fefffe" d="M 120.5,-0.5 C 125.167,-0.5 129.833,-0.5 134.5,-0.5C 142.55,2.38949 147.717,8.05616 150,16.5C 150.171,21.8642 150.671,27.1975 151.5,32.5C 182.41,43.9094 200.244,65.9094 205,98.5C 205.333,112.833 205.667,127.167 206,141.5C 208.59,168.637 219.257,191.97 238,211.5C 241.706,216.546 241.206,221.046 236.5,225C 212.502,225.5 188.502,225.667 164.5,225.5C 161.011,240.988 151.677,250.988 136.5,255.5C 130.5,255.5 124.5,255.5 118.5,255.5C 103.323,250.988 93.9895,240.988 90.5,225.5C 66.4977,225.667 42.4977,225.5 18.5,225C 13.7938,221.046 13.2938,216.546 17,211.5C 35.758,191.977 46.4247,168.643 49,141.5C 49.3333,127.167 49.6667,112.833 50,98.5C 54.7563,65.9094 72.5897,43.9094 103.5,32.5C 102.418,21.5976 105.418,12.0976 112.5,4C 115.099,2.20496 117.766,0.704964 120.5,-0.5 Z M 124.5,15.5 C 127.602,15.154 130.435,15.8207 133,17.5C 134.354,21.3628 134.854,25.3628 134.5,29.5C 129.833,29.5 125.167,29.5 120.5,29.5C 120.335,26.1501 120.502,22.8168 121,19.5C 121.69,17.6498 122.856,16.3164 124.5,15.5 Z M 126.5,44.5 C 160.934,47.4373 181.768,65.7706 189,99.5C 189.333,113.833 189.667,128.167 190,142.5C 192.008,167.532 200.508,190.032 215.5,210C 156.833,210.667 98.1667,210.667 39.5,210C 54.4916,190.034 62.9916,167.534 65,142.5C 65.3333,128.167 65.6667,113.833 66,99.5C 73.0569,66.6046 93.2236,48.2713 126.5,44.5 Z M 107.5,225.5 C 120.85,225.167 134.183,225.501 147.5,226.5C 142.156,237.337 133.49,241.504 121.5,239C 114.351,237.017 109.684,232.517 107.5,225.5 Z"/></g>
<g><path style="opacity:0.917" fill="#fefffe" d="M 51.5,24.5 C 59.8673,25.2371 62.7006,29.5705 60,37.5C 40.1371,58.0667 29.8038,82.7333 29,111.5C 24.0419,115.715 19.3752,115.381 15,110.5C 13.8652,80.9015 22.8652,54.9015 42,32.5C 44.7948,29.1894 47.9615,26.5228 51.5,24.5 Z"/></g>
<g><path style="opacity:0.919" fill="#fefffe" d="M 199.5,24.5 C 205.318,24.7949 209.818,27.4616 213,32.5C 231.88,54.6146 240.88,80.2813 240,109.5C 237.565,114.224 233.731,115.724 228.5,114C 227.333,112.833 226.167,111.667 225,110.5C 224.862,91.6124 220.195,73.9457 211,57.5C 205.305,49.8118 199.638,42.1451 194,34.5C 193.495,29.8412 195.328,26.5079 199.5,24.5 Z"/></g>
</svg>
