<?xml version="1.0" encoding="UTF-8"?>
<!DOCTYPE svg PUBLIC "-//W3C//DTD SVG 1.1//EN" "http://www.w3.org/Graphics/SVG/1.1/DTD/svg11.dtd">
<svg xmlns="http://www.w3.org/2000/svg" version="1.1" width="256px" height="256px" style="shape-rendering:geometricPrecision; text-rendering:geometricPrecision; image-rendering:optimizeQuality; fill-rule:evenodd; clip-rule:evenodd" xmlns:xlink="http://www.w3.org/1999/xlink">
<g><path style="opacity:0.911" fill="#fefffe" d="M 129.5,-0.5 C 132.5,-0.5 135.5,-0.5 138.5,-0.5C 150.727,3.26222 155.894,11.5956 154,24.5C 151.649,31.5192 147.149,36.6859 140.5,40C 138.5,42.3333 136.5,44.6667 134.5,47C 125.106,48.6047 121.606,44.7713 124,35.5C 127.712,30.1207 132.379,25.7873 138,22.5C 140.436,18.3999 139.27,15.7332 134.5,14.5C 133.833,14.8333 133.167,15.1667 132.5,15.5C 132.3,26.22 127.466,29.22 118,24.5C 114.311,12.5513 118.144,4.21799 129.5,-0.5 Z"/></g>
<g><path style="opacity:0.893" fill="#fefffe" d="M 78.5,14.5 C 81.7472,14.4152 84.5806,15.4152 87,17.5C 89.727,23.9544 92.727,30.2878 96,36.5C 99.2049,45.6048 96.0382,49.7715 86.5,49C 85.5,48.1667 84.5,47.3333 83.5,46.5C 80.6062,39.7121 77.4396,33.0454 74,26.5C 72.3087,21.1311 73.8087,17.1311 78.5,14.5 Z"/></g>
<g><path style="opacity:0.895" fill="#fefffe" d="M 181.5,20.5 C 188.657,20.155 191.824,23.4884 191,30.5C 185.937,38.8978 180.104,46.7311 173.5,54C 164.667,55.8333 161.167,52.3333 163,43.5C 168.681,35.3317 174.848,27.6651 181.5,20.5 Z"/></g>
<g><path style="opacity:0.855" fill="#fefffe" d="M 126.5,49.5 C 136.175,49.6717 138.842,54.1717 134.5,63C 124.539,66.0358 120.705,62.5358 123,52.5C 124.145,51.3636 125.312,50.3636 126.5,49.5 Z"/></g>
<g><path style="opacity:0.836" fill="#fefffe" d="M 94.5,51.5 C 100.614,50.5487 104.28,53.0487 105.5,59C 104.922,63.7455 102.255,66.2455 97.5,66.5C 90.542,65.1382 88.3754,61.1382 91,54.5C 92.1451,53.3636 93.3117,52.3636 94.5,51.5 Z"/></g>
<g><path style="opacity:0.92" fill="#fefffe" d="M 206.5,255.5 C 204.167,255.5 201.833,255.5 199.5,255.5C 195.37,249.269 191.204,242.935 187,236.5C 181.099,229.3 174.265,223.133 166.5,218C 161.958,219.257 157.292,219.923 152.5,220C 148.024,216.339 147.357,212.006 150.5,207C 180.166,192.311 193,168.477 189,135.5C 180.47,103.478 159.637,86.4782 126.5,84.5C 102.099,85.6155 83.5994,96.6155 71,117.5C 56.5111,150.021 63.0111,177.521 90.5,200C 98.0547,204.63 106.055,208.296 114.5,211C 118.312,217.87 116.479,222.37 109,224.5C 101.726,222.294 94.5596,220.128 87.5,218C 74.3468,226.152 64.3468,237.152 57.5,251C 48.961,254.451 44.7943,251.618 45,242.5C 52.0225,228.449 61.8559,216.782 74.5,207.5C 48.772,181.914 41.9387,151.914 54,117.5C 68.3917,86.4656 92.725,70.4656 127,69.5C 170.819,72.3171 196.819,95.3171 205,138.5C 207.737,165.976 198.904,188.81 178.5,207C 193.297,217.461 203.964,231.128 210.5,248C 210.073,251.023 208.739,253.523 206.5,255.5 Z"/></g>
<g><path style="opacity:0.859" fill="#fefffe" d="M 95.5,122.5 C 103.491,122.654 106.991,126.654 106,134.5C 103.647,139.426 99.8138,141.26 94.5,140C 88.628,136.984 87.128,132.484 90,126.5C 91.4998,124.531 93.3331,123.198 95.5,122.5 Z"/></g>
<g><path style="opacity:0.859" fill="#fefffe" d="M 134.5,122.5 C 142.491,122.654 145.991,126.654 145,134.5C 141.984,140.372 137.484,141.872 131.5,139C 125.725,132.267 126.725,126.767 134.5,122.5 Z"/></g>
<g><path style="opacity:0.906" fill="#fefffe" d="M 97.5,154.5 C 103.816,157.237 110.316,159.57 117,161.5C 123.494,160.057 129.66,157.724 135.5,154.5C 144.381,158.282 145.381,163.449 138.5,170C 122.19,179.001 106.69,177.834 92,166.5C 90.0357,160.532 91.8691,156.532 97.5,154.5 Z"/></g>
</svg>
